<svg width="46" height="13" viewBox="0 0 46 13" fill="none" xmlns="http://www.w3.org/2000/svg">
<path d="M0.368 12L4.464 0.799999H6.768L10.864 12H8.688L7.792 9.408H3.424L2.512 12H0.368ZM3.984 7.808H7.232L5.6 3.152L3.984 7.808ZM15.2785 12.192C14.2865 12.192 13.5185 11.8827 12.9745 11.264C12.4412 10.6453 12.1745 9.73867 12.1745 8.544V4.064H14.2065V8.352C14.2065 9.03467 14.3452 9.55733 14.6225 9.92C14.8998 10.2827 15.3372 10.464 15.9345 10.464C16.4998 10.464 16.9638 10.2613 17.3265 9.856C17.6998 9.45067 17.8865 8.88533 17.8865 8.16V4.064H19.9345V12H18.1265L17.9665 10.656C17.7212 11.1253 17.3638 11.4987 16.8945 11.776C16.4358 12.0533 15.8972 12.192 15.2785 12.192ZM25.8849 12.192C25.1382 12.192 24.4715 12.0107 23.8849 11.648C23.2982 11.2853 22.8342 10.7893 22.4929 10.16C22.1515 9.53067 21.9809 8.816 21.9809 8.016C21.9809 7.216 22.1515 6.50667 22.4929 5.888C22.8342 5.25867 23.2982 4.768 23.8849 4.416C24.4715 4.05333 25.1382 3.872 25.8849 3.872C26.4822 3.872 27.0049 3.984 27.4529 4.208C27.9009 4.432 28.2635 4.74667 28.5409 5.152V0.48H30.5889V12H28.7649L28.5409 10.864C28.2849 11.216 27.9435 11.5253 27.5169 11.792C27.1009 12.0587 26.5569 12.192 25.8849 12.192ZM26.3169 10.4C26.9782 10.4 27.5169 10.1813 27.9329 9.744C28.3595 9.296 28.5729 8.72533 28.5729 8.032C28.5729 7.33867 28.3595 6.77333 27.9329 6.336C27.5169 5.888 26.9782 5.664 26.3169 5.664C25.6662 5.664 25.1275 5.88267 24.7009 6.32C24.2742 6.75733 24.0609 7.32267 24.0609 8.016C24.0609 8.70933 24.2742 9.28 24.7009 9.728C25.1275 10.176 25.6662 10.4 26.3169 10.4ZM33.9784 2.832C33.605 2.832 33.2957 2.72 33.0504 2.496C32.8157 2.272 32.6984 1.98933 32.6984 1.648C32.6984 1.30667 32.8157 1.02933 33.0504 0.815999C33.2957 0.591999 33.605 0.48 33.9784 0.48C34.3517 0.48 34.6557 0.591999 34.8904 0.815999C35.1357 1.02933 35.2584 1.30667 35.2584 1.648C35.2584 1.98933 35.1357 2.272 34.8904 2.496C34.6557 2.72 34.3517 2.832 33.9784 2.832ZM32.9544 12V4.064H35.0024V12H32.9544ZM41.148 12.192C40.38 12.192 39.6867 12.016 39.068 11.664C38.46 11.312 37.9747 10.8267 37.612 10.208C37.26 9.57867 37.084 8.85333 37.084 8.032C37.084 7.21067 37.2653 6.49067 37.628 5.872C37.9907 5.24267 38.476 4.752 39.084 4.4C39.7027 4.048 40.396 3.872 41.164 3.872C41.9213 3.872 42.604 4.048 43.212 4.4C43.8307 4.752 44.316 5.24267 44.668 5.872C45.0307 6.49067 45.212 7.21067 45.212 8.032C45.212 8.85333 45.0307 9.57867 44.668 10.208C44.316 10.8267 43.8307 11.312 43.212 11.664C42.5933 12.016 41.9053 12.192 41.148 12.192ZM41.148 10.416C41.6813 10.416 42.1453 10.2187 42.54 9.824C42.9347 9.41867 43.132 8.82133 43.132 8.032C43.132 7.24267 42.9347 6.65067 42.54 6.256C42.1453 5.85067 41.6867 5.648 41.164 5.648C40.62 5.648 40.1507 5.85067 39.756 6.256C39.372 6.65067 39.18 7.24267 39.18 8.032C39.18 8.82133 39.372 9.41867 39.756 9.824C40.1507 10.2187 40.6147 10.416 41.148 10.416Z" fill="black"/>
</svg>
