<svg width="17" height="17" viewBox="0 0 17 17" fill="none" xmlns="http://www.w3.org/2000/svg">
<rect width="17" height="17" rx="5" fill="#0ACF83"/>
<path fill-rule="evenodd" clip-rule="evenodd" d="M4.46244 3.2303C4.06829 3.45787 3.93324 3.96186 4.16081 4.35601L6.04465 7.61893C5.46386 8.30571 5.1137 9.19381 5.1137 10.1637C5.1137 12.3414 6.8791 14.1068 9.05684 14.1068C11.2346 14.1068 13 12.3414 13 10.1637C13 7.98594 11.2346 6.22054 9.05684 6.22054C8.72897 6.22054 8.41044 6.26056 8.10588 6.33597L6.26226 3.14273C6.0347 2.74859 5.5307 2.61354 5.13655 2.8411L4.46244 3.2303ZM9.05683 12.4386C10.3132 12.4386 11.3317 11.4201 11.3317 10.1637C11.3317 8.9073 10.3132 7.88879 9.05683 7.88879C7.80044 7.88879 6.78194 8.9073 6.78194 10.1637C6.78194 11.4201 7.80044 12.4386 9.05683 12.4386ZM10.7251 10.1637C10.7251 11.085 9.97815 11.8319 9.0568 11.8319C8.13545 11.8319 7.38855 11.085 7.38855 10.1637C7.38855 9.24232 8.13545 8.49541 9.0568 8.49541C9.97815 8.49541 10.7251 9.24232 10.7251 10.1637Z" fill="white"/>
</svg>
